<svg xmlns="http://www.w3.org/2000/svg" viewBox="0 0 100 100">
  <defs>
    <linearGradient id="bg" x1="0%" y1="0%" x2="100%" y2="100%">
      <stop offset="0%" stop-color="#180a00"/>
      <stop offset="100%" stop-color="#180005"/>
    </linearGradient>
    <linearGradient id="g" x1="0%" y1="0%" x2="100%" y2="100%">
      <stop offset="0%" stop-color="#f59e0b"/>
      <stop offset="100%" stop-color="#ef4444"/>
    </linearGradient>
    <linearGradient id="gfade" x1="0%" y1="0%" x2="100%" y2="100%">
      <stop offset="0%" stop-color="#f59e0b" stop-opacity="0.55"/>
      <stop offset="100%" stop-color="#ef4444" stop-opacity="0.55"/>
    </linearGradient>
  </defs>
  <rect x="4" y="4" width="92" height="92" rx="22" fill="url(#bg)"/>
  <rect x="4" y="4" width="92" height="92" rx="22" fill="none" stroke="url(#gfade)" stroke-width="1.2"/>
  <line x1="4" y1="27" x2="96" y2="27" stroke="url(#gfade)" stroke-width="0.8"/>
  <line x1="4" y1="73" x2="96" y2="73" stroke="url(#gfade)" stroke-width="0.8"/>
  <rect x="17" y="14.5" width="11" height="8" rx="2.5" fill="url(#g)"/>
  <rect x="44.5" y="14.5" width="11" height="8" rx="2.5" fill="url(#g)"/>
  <rect x="72" y="14.5" width="11" height="8" rx="2.5" fill="url(#g)"/>
  <rect x="17" y="77.5" width="11" height="8" rx="2.5" fill="url(#g)"/>
  <rect x="44.5" y="77.5" width="11" height="8" rx="2.5" fill="url(#g)"/>
  <rect x="72" y="77.5" width="11" height="8" rx="2.5" fill="url(#g)"/>
  <polygon points="37,34 37,66 71,50" fill="url(#g)"/>
</svg>
