<svg xmlns="http://www.w3.org/2000/svg" viewBox="0 0 100 100">
  <defs>
    <linearGradient id="g" x1="0%" y1="0%" x2="100%" y2="100%">
      <stop offset="0%" stop-color="#f59e0b"/>
      <stop offset="100%" stop-color="#ef4444"/>
    </linearGradient>
    <linearGradient id="gs" x1="0%" y1="0%" x2="100%" y2="100%">
      <stop offset="0%" stop-color="#f59e0b" stop-opacity="0.6"/>
      <stop offset="100%" stop-color="#ef4444" stop-opacity="0.6"/>
    </linearGradient>
    <radialGradient id="lens" cx="35%" cy="32%" r="65%">
      <stop offset="0%" stop-color="#1e1e1e"/>
      <stop offset="100%" stop-color="#060606"/>
    </radialGradient>
    <clipPath id="clp">
      <rect x="60" y="28" width="34" height="12" rx="3"/>
    </clipPath>
  </defs>
  <rect x="5" y="44" width="62" height="34" rx="7" fill="url(#g)"/>
  <rect x="12" y="32" width="18" height="14" rx="4" fill="url(#g)"/>
  <rect x="40" y="33" width="20" height="13" rx="3" fill="url(#g)"/>
  <circle cx="28" cy="61" r="16" fill="#0c0c0c"/>
  <circle cx="28" cy="61" r="16" fill="none" stroke="url(#gs)" stroke-width="2"/>
  <circle cx="28" cy="61" r="11.5" fill="none" stroke="rgba(255,255,255,0.08)" stroke-width="1.2"/>
  <circle cx="28" cy="61" r="10" fill="url(#lens)"/>
  <circle cx="22.5" cy="55.5" r="2.8" fill="white" opacity="0.13"/>
  <circle cx="21.5" cy="54.5" r="1.2" fill="white" opacity="0.32"/>
  <rect x="62" y="42" width="33" height="36" rx="4" fill="#101010"/>
  <rect x="62" y="42" width="33" height="36" rx="4" fill="none" stroke="url(#gs)" stroke-width="1.5"/>
  <rect x="67" y="52" width="20" height="2.5" rx="1.2" fill="url(#gs)"/>
  <rect x="67" y="59" width="14" height="2.5" rx="1.2" fill="url(#gs)" opacity="0.6"/>
  <rect x="67" y="66" width="17" height="2.5" rx="1.2" fill="url(#gs)" opacity="0.6"/>
  <rect x="60" y="37" width="36" height="7" rx="2.5" fill="url(#g)"/>
  <g clip-path="url(#clp)">
    <rect x="60" y="28" width="36" height="12" fill="url(#g)"/>
    <polygon points="68,28 74,28 62,40 56,40" fill="#050505" opacity="0.45"/>
    <polygon points="80,28 86,28 74,40 68,40" fill="#050505" opacity="0.45"/>
    <polygon points="92,28 98,28 86,40 80,40" fill="#050505" opacity="0.45"/>
  </g>
  <g transform="rotate(-22 62 37)">
    <rect x="60" y="27" width="36" height="8" rx="2.5" fill="url(#g)"/>
    <rect x="68" y="27" width="6" height="8" fill="#050505" opacity="0.4"/>
    <rect x="80" y="27" width="6" height="8" fill="#050505" opacity="0.4"/>
    <rect x="92" y="27" width="6" height="8" fill="#050505" opacity="0.4"/>
  </g>
  <circle cx="62" cy="37" r="2.8" fill="#050505"/>
  <circle cx="62" cy="37" r="1.4" fill="url(#g)" opacity="0.9"/>
</svg>
